<?xml version="1.0" standalone="no"?>
<!DOCTYPE svg PUBLIC "-//W3C//DTD SVG 20010904//EN"
 "http://www.w3.org/TR/2001/REC-SVG-20010904/DTD/svg10.dtd">
<svg version="1.0" xmlns="http://www.w3.org/2000/svg"
 width="700.000000pt" height="700.000000pt" viewBox="0 0 700.000000 700.000000"
 preserveAspectRatio="xMidYMid meet">
<g transform="translate(0.000000,700.000000) scale(0.100000,-0.100000)"
fill="#000000" stroke="none">
<path d="M3278 6995 c-1 -1 -42 -5 -89 -9 -47 -4 -95 -8 -105 -10 -10 -2 -48
-7 -84 -12 -36 -4 -67 -8 -70 -9 -3 -1 -25 -5 -50 -9 -25 -4 -101 -21 -170
-38 -69 -16 -135 -31 -147 -34 -40 -8 -264 -84 -367 -126 -371 -147 -747 -383
-1044 -653 -396 -360 -706 -806 -902 -1296 -66 -165 -142 -408 -165 -530 -3
-13 -12 -58 -20 -99 -8 -41 -17 -89 -19 -105 -3 -17 -7 -46 -11 -66 -6 -40
-10 -74 -22 -199 -15 -162 -8 -591 12 -711 2 -13 6 -46 9 -74 47 -408 239
-953 466 -1318 30 -48 60 -95 65 -105 24 -42 133 -191 208 -285 163 -202 344
-382 557 -552 92 -74 370 -265 386 -265 4 0 15 -6 23 -14 48 -40 387 -201 551
-261 238 -86 490 -149 719 -181 25 -3 57 -8 71 -10 151 -25 725 -25 870 0 14
3 51 8 83 11 32 3 82 10 110 16 29 5 66 12 82 15 25 4 131 26 186 39 342 77
761 263 1064 473 294 204 602 507 803 791 165 233 303 464 397 666 58 123 105
227 105 231 0 2 -354 4 -787 4 l-788 0 -234 633 c-129 347 -279 752 -334 899
l-99 267 -157 -2 -156 -2 -54 -145 c-29 -80 -103 -278 -163 -440 -60 -162
-115 -311 -123 -330 -7 -19 -68 -183 -135 -365 -67 -181 -127 -346 -135 -365
-7 -19 -23 -61 -35 -93 l-22 -57 -494 0 -493 0 25 67 c14 38 44 118 66 178 98
267 241 654 258 695 10 25 69 182 130 350 123 335 167 455 181 485 4 11 17 45
27 75 16 46 195 527 277 745 20 53 59 158 166 448 17 48 35 84 39 80 4 -4 42
-102 85 -218 173 -469 264 -713 285 -767 l21 -58 150 0 c82 0 149 2 149 5 0 5
-52 147 -100 275 -16 41 -81 217 -145 390 -64 173 -123 331 -130 350 -8 19
-44 116 -81 215 -198 539 -264 717 -274 734 -9 18 -23 19 -164 20 -173 2 -159
7 -189 -75 -52 -143 -96 -263 -105 -284 -6 -14 -45 -119 -87 -235 -42 -115
-81 -219 -86 -230 -5 -11 -24 -63 -43 -115 -19 -52 -47 -126 -61 -165 -15 -38
-44 -117 -65 -175 -21 -58 -43 -116 -48 -130 -6 -14 -30 -77 -53 -140 -23 -63
-52 -142 -64 -175 -12 -33 -100 -269 -195 -525 -94 -256 -179 -481 -187 -500
-8 -19 -16 -42 -18 -50 -2 -8 -64 -177 -138 -375 -74 -198 -180 -484 -236
-635 -56 -151 -114 -309 -130 -350 -16 -41 -66 -176 -111 -300 -45 -124 -86
-234 -91 -245 -30 -68 -109 -298 -104 -304 11 -11 686 -7 695 4 4 5 37 89 73
185 36 96 89 240 119 320 l54 145 492 1 c271 0 492 0 492 -1 0 -6 -52 -154
-60 -170 -5 -11 -41 -108 -81 -215 -39 -107 -74 -201 -78 -210 -5 -8 -11 -26
-14 -40 l-6 -25 149 0 149 0 40 105 c22 58 77 204 122 325 45 121 86 223 90
226 5 3 197 5 426 5 l417 -1 32 -85 c18 -47 56 -148 84 -225 29 -77 70 -187
92 -245 l39 -105 350 0 350 0 -7 30 c-3 16 -13 46 -21 65 -8 19 -39 103 -69
185 -30 83 -60 161 -65 175 -6 14 -26 66 -44 116 l-33 90 509 0 c280 0 509 -3
509 -7 0 -29 -181 -310 -289 -449 -139 -180 -317 -364 -481 -498 -25 -20 -51
-42 -58 -49 -32 -31 -257 -186 -347 -240 -250 -151 -543 -275 -820 -348 -147
-39 -162 -42 -255 -59 -447 -80 -927 -65 -1361 44 -1070 269 -1929 1068 -2275
2117 -35 108 -96 348 -109 433 -4 25 -9 54 -11 65 -4 20 -13 85 -19 135 -24
193 -24 572 1 755 16 117 48 295 64 355 7 25 13 52 15 60 11 58 90 305 120
375 91 215 162 358 258 515 42 69 182 268 219 312 13 14 39 45 58 69 245 299
625 603 985 787 248 126 557 239 760 278 11 2 40 8 65 14 297 66 738 83 1060
41 97 -13 227 -37 315 -57 75 -17 294 -80 329 -94 12 -5 58 -23 103 -39 129
-48 348 -153 435 -208 21 -12 40 -23 44 -23 12 0 242 -157 334 -229 460 -357
809 -825 1023 -1366 30 -77 61 -160 67 -185 7 -25 16 -54 20 -65 8 -20 39
-132 45 -163 1 -9 8 -35 14 -57 5 -22 13 -56 16 -75 3 -19 10 -60 15 -90 48
-279 59 -672 24 -920 -20 -141 -51 -305 -80 -420 -19 -74 -34 -138 -34 -141 0
-3 65 -6 145 -5 l145 0 10 36 c5 19 14 55 20 80 15 56 15 55 45 220 13 74 27
162 30 195 4 33 9 71 11 85 9 47 11 525 3 605 -15 165 -21 220 -24 225 -2 3
-6 30 -10 60 -3 30 -10 71 -15 90 -5 19 -12 51 -15 70 -3 19 -19 87 -35 151
-163 647 -525 1249 -1031 1714 -492 452 -1151 771 -1799 870 -25 4 -54 9 -65
11 -10 2 -49 6 -85 10 -36 3 -78 8 -95 11 -33 5 -531 13 -537 8z m1184 -4625
l35 -95 -159 -3 c-87 -1 -229 -1 -317 0 l-158 3 79 215 c44 118 83 224 88 235
5 11 21 54 36 95 14 41 32 89 39 105 7 17 23 59 35 95 42 121 31 136 165 -226
67 -181 138 -372 157 -424z"/>
</g>
</svg>
