<svg xmlns="http://www.w3.org/2000/svg" width="21" height="24" viewBox="0 0 21 24"
    fill="none">
    <g clip-path="url(#clip0_144_61)">
        <path
            d="M10.5043 6.60927C7.52304 6.60927 5.11835 9.01396 5.11835 11.9952C5.11835 14.9765 7.52304 17.3811 10.5043 17.3811C13.4855 17.3811 15.8902 14.9765 15.8902 11.9952C15.8902 9.01396 13.4855 6.60927 10.5043 6.60927ZM10.5043 15.4968C8.57773 15.4968 7.00273 13.9265 7.00273 11.9952C7.00273 10.064 8.57304 8.49365 10.5043 8.49365C12.4355 8.49365 14.0058 10.064 14.0058 11.9952C14.0058 13.9265 12.4308 15.4968 10.5043 15.4968ZM17.3668 6.38896C17.3668 7.0874 16.8043 7.64521 16.1105 7.64521C15.4121 7.64521 14.8543 7.08271 14.8543 6.38896C14.8543 5.69521 15.4168 5.13271 16.1105 5.13271C16.8043 5.13271 17.3668 5.69521 17.3668 6.38896ZM20.934 7.66396C20.8543 5.98115 20.4699 4.49053 19.2371 3.2624C18.009 2.03428 16.5183 1.6499 14.8355 1.56553C13.1012 1.46709 7.90273 1.46709 6.16835 1.56553C4.49023 1.64521 2.99961 2.02959 1.7668 3.25771C0.533984 4.48584 0.154297 5.97646 0.0699218 7.65927C-0.0285156 9.39365 -0.0285156 14.5921 0.0699218 16.3265C0.149609 18.0093 0.533984 19.4999 1.7668 20.728C2.99961 21.9561 4.48554 22.3405 6.16835 22.4249C7.90273 22.5233 13.1012 22.5233 14.8355 22.4249C16.5183 22.3452 18.009 21.9608 19.2371 20.728C20.4652 19.4999 20.8496 18.0093 20.934 16.3265C21.0324 14.5921 21.0324 9.39834 20.934 7.66396ZM18.6933 18.1874C18.3277 19.1061 17.6199 19.814 16.6965 20.1843C15.3137 20.7327 12.0324 20.6061 10.5043 20.6061C8.97616 20.6061 5.69023 20.728 4.31211 20.1843C3.39336 19.8186 2.68554 19.1108 2.31523 18.1874C1.7668 16.8046 1.89336 13.5233 1.89336 11.9952C1.89336 10.4671 1.77148 7.18115 2.31523 5.80303C2.68086 4.88428 3.38867 4.17646 4.31211 3.80615C5.69492 3.25771 8.97616 3.38428 10.5043 3.38428C12.0324 3.38428 15.3183 3.2624 16.6965 3.80615C17.6152 4.17178 18.323 4.87959 18.6933 5.80303C19.2418 7.18584 19.1152 10.4671 19.1152 11.9952C19.1152 13.5233 19.2418 16.8093 18.6933 18.1874Z"
            fill="#2C3539" />
    </g>
    <defs>
        <clipPath id="clip0_144_61">
            <rect width="21" height="24" fill="white" />
        </clipPath>
    </defs>
</svg>