<svg xmlns="http://www.w3.org/2000/svg" width="64" height="64" viewBox="0 0 64 64" fill="none">
  <path fill-rule="evenodd" clip-rule="evenodd" d="M57.9525 45.8378C53.0026 55.1019 43.2374 61.4054 32 61.4054C15.7598 61.4054 2.59459 48.2402 2.59459 32C2.59459 15.7598 15.7598 2.59459 32 2.59459C48.2402 2.59459 61.4054 15.7598 61.4054 32C61.4054 35.0099 60.9532 37.9142 60.113 40.6487H62.8176C63.588 37.8977 64 34.997 64 32C64 14.3269 49.6731 0 32 0C14.3269 0 0 14.3269 0 32C0 49.6731 14.3269 64 32 64C44.7166 64 55.7838 57.9459 62.0135 43.2432H47.5958L41.4959 26.8108H38.637L32.5371 43.2432H23.506L34.166 14.5265L37.7629 24.2162H40.5305L33.7885 6.05405H30.8533L13.8378 51.8919H20.2955L22.5428 45.8378H31.574L29.3266 51.8919H32.0943L34.3416 45.8378H42.1012L44.3486 51.8919H50.8063L48.5589 45.8378H57.9525ZM41.1381 43.2432L38.2214 35.386L35.3048 43.2432H41.1381Z" />
</svg>