<svg width="94" height="94" viewBox="0 0 94 94" fill="none" xmlns="http://www.w3.org/2000/svg">
<path fill-rule="evenodd" clip-rule="evenodd" d="M85.1178 67.3243C77.8476 80.9309 63.505 90.1892 47 90.1892C23.1473 90.1892 3.81081 70.8527 3.81081 47C3.81081 23.1473 23.1473 3.81081 47 3.81081C70.8527 3.81081 90.1892 23.1473 90.1892 47C90.1892 51.4208 89.525 55.6865 88.2909 59.7027H92.2633C93.3949 55.6622 94 51.4018 94 47C94 21.0426 72.9574 0 47 0C21.0426 0 0 21.0426 0 47C0 72.9574 21.0426 94 47 94C65.6774 94 81.9324 85.1081 91.0824 63.5135H69.9063L60.9471 39.3784H56.7481L47.7889 63.5135H34.5244L50.1813 21.3358L55.4642 35.5676H59.5292L49.6269 8.89189H45.3158L20.3243 76.2162H29.809L33.1098 67.3243H46.3743L43.0735 76.2162H47.1385L50.4392 67.3243H61.8362L65.1369 76.2162H74.6217L71.3209 67.3243H85.1178ZM60.4216 63.5135L56.1377 51.9732L51.8539 63.5135H60.4216Z" fill="#2C3539"/>
</svg>
